<svg width="689" height="128" viewBox="0 0 689 128" fill="none" xmlns="http://www.w3.org/2000/svg">
<g clip-path="url(#clip0_2_4187)">
<path d="M61.9966 63.8198C62.0245 55.549 68.7513 48.8989 77.0653 48.9187C85.2401 48.9426 92.0067 55.7516 91.9669 63.9231C91.9271 72.2496 85.1923 78.8838 76.8107 78.848C68.5961 78.8123 61.9728 72.0907 61.9966 63.8159V63.8198Z" fill="white"/>
<path fill-rule="evenodd" clip-rule="evenodd" d="M64 128.003C99.3462 128.003 128 99.3493 128 64.0031C128 28.6568 99.3462 0.00305176 64 0.00305176C28.6538 0.00305176 0 28.6568 0 64.0031C0 99.3493 28.6538 128.003 64 128.003ZM52 44.0031C40.9543 44.0031 32 52.9574 32 64.0031C32 75.0487 40.9543 84.0031 52 84.0031H76C87.0457 84.0031 96 75.0487 96 64.0031C96 52.9574 87.0457 44.0031 76 44.0031H52Z" fill="white"/>
</g>
<path d="M251.427 80.9824C250.376 82.3888 249.051 83.5217 247.454 84.3617C245.506 85.3774 243.266 85.9048 240.812 85.9048C237.111 85.9048 234.053 84.9281 231.755 82.9943C229.788 81.334 228.521 79.1267 227.976 76.392H268.626C268.626 76.392 268.957 76.4506 268.957 73.9504C268.957 70.4344 268.607 65.7659 267.789 62.9336V62.8554C267.01 60.277 265.899 57.8939 264.419 55.7648L263.913 55.0616C261.088 51.2526 257.641 48.2835 253.648 46.1935C249.635 44.0839 245.233 43.0291 240.617 43.0291C236.001 43.0291 233.313 43.8104 229.885 45.3731C226.457 46.9162 223.34 49.143 220.633 52.0144C218.159 54.6123 216.231 57.6009 214.945 60.9021L214.906 60.9802C213.66 64.2228 213.017 67.7388 213.017 71.4306C213.017 75.1224 213.699 78.5798 215.121 82.0567C216.523 85.4946 218.51 88.5613 221.022 91.1788C223.691 93.933 226.749 96.0426 230.08 97.449C233.43 98.8554 237.15 99.5782 241.124 99.5782C247.045 99.5782 252.362 97.9374 256.881 94.7143C261.361 91.5109 264.789 86.9987 267.049 81.2754L267.165 80.9824H251.427ZM232.826 59.0855C235.124 57.347 237.734 56.4485 240.637 56.4485C243.539 56.4485 246.85 57.2689 249.051 58.8901C250.862 60.2184 252.265 62.1132 253.219 64.5158H228.697C229.573 62.3476 230.956 60.5309 232.826 59.0855Z" fill="white"/>
<path d="M372.46 80.9824C371.408 82.3888 370.084 83.5217 368.487 84.3617C366.539 85.3774 364.299 85.9048 361.845 85.9048C358.144 85.9048 355.086 84.9281 352.787 82.9943C350.82 81.334 349.554 79.1267 349.009 76.392H389.659C389.659 76.392 389.99 76.4506 389.99 73.9504C389.99 70.4344 389.639 65.7659 388.821 62.9336V62.8554C388.042 60.277 386.932 57.8939 385.452 55.7648L384.945 55.0616C382.121 51.2526 378.673 48.2835 374.681 46.1935C370.668 44.0839 366.266 43.0291 361.65 43.0291C357.034 43.0291 354.346 43.8104 350.918 45.3731C347.489 46.9162 344.373 49.143 341.666 52.0144C339.192 54.6123 337.264 57.6009 335.978 60.9021L335.939 60.9802C334.693 64.2228 334.05 67.7388 334.05 71.4306C334.05 75.1224 334.732 78.5798 336.153 82.0567C337.556 85.4946 339.543 88.5613 342.055 91.1788C344.724 93.933 347.782 96.0426 351.112 97.449C354.463 98.8554 358.183 99.5782 362.156 99.5782C368.078 99.5782 373.395 97.9374 377.914 94.7143C382.394 91.5109 385.822 86.9987 388.081 81.2754L388.198 80.9824H372.46ZM353.839 59.0855C356.138 57.347 358.748 56.4485 361.65 56.4485C364.552 56.4485 367.863 57.2689 370.064 58.8901C371.876 60.2184 373.278 62.1132 374.233 64.5158H349.71C350.586 62.3476 351.969 60.5309 353.839 59.0855Z" fill="white"/>
<path d="M670.541 80.9817C669.489 82.3881 668.164 83.521 666.567 84.3609C664.619 85.3767 662.379 85.9041 659.925 85.9041C656.224 85.9041 653.166 84.9274 650.868 82.9936C648.901 81.3333 647.635 79.126 647.089 76.3913H687.74C687.74 76.3913 688.071 76.4499 688.071 73.9496C688.071 70.4336 687.72 65.7652 686.902 62.9328V62.8547C686.123 60.2763 685.013 57.8932 683.532 55.7641L683.026 55.0609C680.202 51.2519 676.754 48.2828 672.761 46.1927C668.749 44.0831 664.347 43.0283 659.73 43.0283C655.114 43.0283 652.426 43.8097 648.998 45.3723C645.57 46.9155 642.454 49.1423 639.746 52.0137C637.273 54.6116 635.344 57.6002 634.059 60.9014L634.02 60.9795C632.773 64.222 632.13 67.738 632.13 71.4298C632.13 75.1216 632.812 78.579 634.234 82.056C635.636 85.4939 637.623 88.5606 640.136 91.1781C642.804 93.9323 645.862 96.0419 649.193 97.4483C652.543 98.8547 656.263 99.5774 660.237 99.5774C666.158 99.5774 671.476 97.9366 675.994 94.7136C680.474 91.5101 683.902 86.9979 686.162 81.2747L686.279 80.9817H670.541ZM651.92 59.0847C654.218 57.3463 656.828 56.4477 659.73 56.4477C662.633 56.4477 665.944 57.2681 668.145 58.8894C669.956 60.2177 671.359 62.1124 672.313 64.515H647.791C648.667 62.3468 650.05 60.5302 651.92 59.0847Z" fill="white"/>
<path d="M291.276 28.0038H276.882V43.5133H269.032V56.6202H276.882V99.8084H291.276V56.6202H299.164V43.5133H291.276V28.0038Z" fill="white"/>
<path d="M326.064 28.0038H311.67V43.5133H303.821V56.6202H311.67V99.8084H326.064V56.6202H333.953V43.5133H326.064V28.0038Z" fill="white"/>
<path d="M393 43.6251H403.266L405.687 49.7511C406.653 48.528 407.858 47.4209 409.188 46.4403C411.485 44.6057 414.747 43.6251 418.976 43.6251C420.306 43.6251 420.693 43.6251 421 43.6251V58.0807C420.158 57.9542 419.818 57.7117 418.374 57.7117C411.609 57.7117 406.903 62.6146 406.903 69.9742V100.003H393.01V43.6251H393Z" fill="white"/>
<path d="M426.022 43.6244H436.693L439.21 49.1388C440.344 48.0317 441.716 46.9352 443.099 46.0706C445.486 44.5944 448.877 43.0023 453.014 43.0023C458.912 43.0023 463.06 44.8369 465.695 46.6821C467.208 47.7892 468.46 49.0123 469.335 50.3619C470.718 49.0123 472.219 47.7892 473.98 46.6821C476.994 44.8475 481.26 43.0023 486.283 43.0023C498.845 43.0023 507 50.9735 507 66.2937V100.002H492.558V67.5167C492.558 60.6527 488.162 56.4879 483.14 56.4879C478.117 56.4879 473.721 60.6527 473.721 67.5167V100.002H459.279V67.5167C459.279 60.6527 454.883 56.4879 449.86 56.4879C444.838 56.4879 440.442 60.6527 440.442 67.5167V100.002H426V43.6244H426.022Z" fill="white"/>
<path d="M558.604 50.7049L556.968 49.1227V49.279C554.689 47.4233 552.215 45.9779 549.605 44.9426C546.353 43.6729 542.749 43.0283 538.912 43.0283C535.075 43.0283 531.725 43.7511 528.336 45.1965C525.005 46.6225 521.966 48.6735 519.298 51.3105L519.22 51.3886C516.59 54.0061 514.565 57.0533 513.182 60.4325C511.799 63.8118 511.098 67.406 511.098 71.1564C511.098 74.9068 511.779 78.4423 513.104 81.7825C514.428 85.1227 516.415 88.2285 519.006 91.0023C521.733 93.8346 524.771 96.0028 528.082 97.4287C531.374 98.8547 535.094 99.5774 539.126 99.5774C543.158 99.5774 546.839 98.8547 550.229 97.4483C553.637 96.0419 556.715 93.9323 559.364 91.1781C562.013 88.4825 564.038 85.3962 565.363 82.0169C566.687 78.6572 567.369 74.9068 567.369 70.8634C567.369 66.82 566.59 63.5384 565.071 60.0224C563.551 56.5259 561.37 53.4005 558.585 50.7049H558.604ZM552.527 70.7852C552.527 75.2584 551.3 78.8525 548.904 81.4505C546.528 84.0093 543.275 85.3181 539.224 85.3181C535.172 85.3181 531.822 84.0484 529.446 81.5286C527.05 78.9892 525.842 75.4732 525.842 71.0587C525.842 66.6442 527.089 63.5774 529.563 61.0186C532.017 58.4597 535.27 57.1705 539.185 57.1705C543.1 57.1705 546.158 58.4206 548.709 60.9795C551.222 63.5188 552.488 66.8004 552.488 70.7852H552.527Z" fill="white"/>
<path d="M613.595 47.595C611.822 46.4035 609.953 45.4659 608.024 44.8213H607.985C605.317 43.9227 602.239 43.4735 598.85 43.4735C595.461 43.4735 591.838 44.0985 588.741 45.2901C585.586 46.5012 582.742 48.2787 580.327 50.5836C577.405 53.2597 575.107 56.4632 573.529 60.0768C571.932 63.7101 571.114 67.5777 571.114 71.5234C571.114 75.4691 571.99 79.9032 573.724 83.7122C575.457 87.5212 577.97 90.8614 581.203 93.6547C583.56 95.7057 586.287 97.2879 589.287 98.3818H589.326C592.306 99.4561 595.5 100.003 598.85 100.003C602.2 100.003 605.025 99.5147 607.752 98.5576C609.758 97.8544 611.725 96.8582 613.614 95.608V99.8273H627.814V28.0031H613.614V47.595H613.595ZM609.271 61.7176C611.706 64.2765 612.991 67.5191 613.108 71.3281V71.875C613.108 75.7231 611.842 79.0047 609.349 81.6807C606.875 84.3178 603.817 85.6656 600.253 85.6656C596.688 85.6656 592.715 84.3178 590.046 81.6807L589.968 81.6026C587.339 78.9851 586.014 75.6449 586.014 71.6992C586.014 67.7535 587.3 64.6477 590.046 61.8153C592.695 59.0806 595.948 57.6938 599.707 57.6938C603.466 57.6938 606.739 59.0416 609.271 61.7176Z" fill="white"/>
<path d="M199.487 50.5844C197.053 48.2794 194.209 46.5019 191.054 45.2908C187.957 44.0993 184.47 43.4742 180.945 43.4742C177.419 43.4742 174.478 43.9235 171.809 44.8025H171.77C169.842 45.4666 167.953 46.4042 166.2 47.5958V28.0038H152V99.8085H166.2V95.5892C168.07 96.8394 170.037 97.8356 172.063 98.5388C174.79 99.4959 177.789 99.9843 180.964 99.9843C184.139 99.9843 187.509 99.4373 190.489 98.3825H190.528C193.527 97.2887 196.254 95.6869 198.611 93.6359C201.844 90.8426 204.357 87.4829 206.09 83.6934C207.824 79.8844 208.7 75.7824 208.7 71.5046C208.7 67.2268 207.882 63.6913 206.285 60.058C204.688 56.4444 202.409 53.2409 199.487 50.5648V50.5844ZM170.465 81.701C167.972 79.0445 166.706 75.7433 166.706 71.8953V71.3483C166.823 67.5198 168.109 64.2968 170.543 61.7184C173.075 59.0423 176.289 57.6945 180.107 57.6945C183.925 57.6945 187.119 59.0814 189.768 61.8161C192.514 64.6484 193.8 67.7737 193.8 71.6999C193.8 75.6261 192.475 78.9663 189.865 81.5838L189.768 81.662C187.1 84.299 183.652 85.6468 179.562 85.6468C175.471 85.6468 172.959 84.3185 170.465 81.662V81.701Z" fill="white"/>
<defs>
<clipPath id="clip0_2_4187">
<rect width="128" height="128.002" fill="white" transform="translate(0 0.00305176)"/>
</clipPath>
</defs>
</svg>
