<svg width="689" height="128" viewBox="0 0 689 128" fill="none" xmlns="http://www.w3.org/2000/svg">
<circle cx="64" cy="64" r="64" fill="#46CB19"/>
<path d="M32 64C32 52.9543 40.9543 44 52 44H76C87.0457 44 96 52.9543 96 64C96 75.0457 87.0457 84 76 84H52C40.9543 84 32 75.0457 32 64Z" fill="white"/>
<path d="M61.9966 63.8168C62.0245 55.5459 68.7513 48.8958 77.0653 48.9157C85.2401 48.9395 92.0067 55.7485 91.9669 63.9201C91.9271 72.2466 85.1923 78.8807 76.8107 78.845C68.5961 78.8092 61.9728 72.0877 61.9966 63.8128V63.8168Z" fill="#46CB19"/>
<path d="M251.427 80.9793C250.376 82.3857 249.051 83.5187 247.454 84.3586C245.506 85.3743 243.266 85.9017 240.812 85.9017C237.111 85.9017 234.053 84.9251 231.755 82.9913C229.788 81.3309 228.521 79.1237 227.976 76.389H268.626C268.626 76.389 268.957 76.4476 268.957 73.9473C268.957 70.4313 268.607 65.7628 267.789 62.9305V62.8524C267.01 60.274 265.899 57.8909 264.419 55.7618L263.913 55.0586C261.088 51.2495 257.641 48.2805 253.648 46.1904C249.635 44.0808 245.233 43.026 240.617 43.026C236.001 43.026 233.313 43.8073 229.885 45.37C226.457 46.9131 223.34 49.1399 220.633 52.0113C218.159 54.6093 216.231 57.5979 214.945 60.899L214.906 60.9772C213.66 64.2197 213.017 67.7357 213.017 71.4275C213.017 75.1193 213.699 78.5767 215.121 82.0537C216.523 85.4915 218.51 88.5583 221.022 91.1758C223.691 93.93 226.749 96.0396 230.08 97.446C233.43 98.8524 237.15 99.5751 241.124 99.5751C247.045 99.5751 252.362 97.9343 256.881 94.7113C261.361 91.5078 264.789 86.9956 267.049 81.2723L267.165 80.9793H251.427ZM232.826 59.0824C235.124 57.344 237.734 56.4454 240.637 56.4454C243.539 56.4454 246.85 57.2658 249.051 58.8871C250.862 60.2154 252.265 62.1101 253.219 64.5127H228.697C229.573 62.3445 230.956 60.5279 232.826 59.0824Z" fill="#46CB19"/>
<path d="M372.46 80.9793C371.408 82.3857 370.084 83.5187 368.487 84.3586C366.539 85.3743 364.299 85.9017 361.845 85.9017C358.144 85.9017 355.086 84.9251 352.787 82.9913C350.82 81.3309 349.554 79.1237 349.009 76.389H389.659C389.659 76.389 389.99 76.4476 389.99 73.9473C389.99 70.4313 389.639 65.7628 388.821 62.9305V62.8524C388.042 60.274 386.932 57.8909 385.452 55.7618L384.945 55.0586C382.121 51.2495 378.673 48.2805 374.681 46.1904C370.668 44.0808 366.266 43.026 361.65 43.026C357.034 43.026 354.346 43.8073 350.918 45.37C347.489 46.9131 344.373 49.1399 341.666 52.0113C339.192 54.6093 337.264 57.5979 335.978 60.899L335.939 60.9772C334.693 64.2197 334.05 67.7357 334.05 71.4275C334.05 75.1193 334.732 78.5767 336.153 82.0537C337.556 85.4915 339.543 88.5583 342.055 91.1758C344.724 93.93 347.782 96.0396 351.112 97.446C354.463 98.8524 358.183 99.5751 362.156 99.5751C368.078 99.5751 373.395 97.9343 377.914 94.7113C382.394 91.5078 385.822 86.9956 388.081 81.2723L388.198 80.9793H372.46ZM353.839 59.0824C356.138 57.344 358.748 56.4454 361.65 56.4454C364.552 56.4454 367.863 57.2658 370.064 58.8871C371.876 60.2154 373.278 62.1101 374.233 64.5127H349.71C350.586 62.3445 351.969 60.5279 353.839 59.0824Z" fill="#46CB19"/>
<path d="M670.541 80.9786C669.489 82.385 668.164 83.5179 666.567 84.3578C664.619 85.3736 662.379 85.901 659.925 85.901C656.224 85.901 653.166 84.9243 650.868 82.9905C648.901 81.3302 647.635 79.1229 647.089 76.3882H687.74C687.74 76.3882 688.071 76.4468 688.071 73.9466C688.071 70.4305 687.72 65.7621 686.902 62.9297V62.8516C686.123 60.2732 685.013 57.8901 683.532 55.761L683.026 55.0578C680.202 51.2488 676.754 48.2797 672.761 46.1896C668.749 44.08 664.347 43.0252 659.73 43.0252C655.114 43.0252 652.426 43.8066 648.998 45.3692C645.57 46.9124 642.454 49.1392 639.746 52.0106C637.273 54.6085 635.344 57.5971 634.059 60.8983L634.02 60.9764C632.773 64.2189 632.13 67.7349 632.13 71.4268C632.13 75.1186 632.812 78.576 634.234 82.0529C635.636 85.4908 637.623 88.5575 640.136 91.175C642.804 93.9292 645.862 96.0388 649.193 97.4452C652.543 98.8516 656.263 99.5743 660.237 99.5743C666.158 99.5743 671.476 97.9335 675.994 94.7105C680.474 91.5071 683.902 86.9948 686.162 81.2716L686.279 80.9786H670.541ZM651.92 59.0817C654.218 57.3432 656.828 56.4447 659.73 56.4447C662.633 56.4447 665.944 57.2651 668.145 58.8863C669.956 60.2146 671.359 62.1093 672.313 64.5119H647.791C648.667 62.3437 650.05 60.5271 651.92 59.0817Z" fill="#46CB19"/>
<path d="M291.276 28.0008H276.882V43.5103H269.032V56.6172H276.882V99.8054H291.276V56.6172H299.164V43.5103H291.276V28.0008Z" fill="#46CB19"/>
<path d="M326.064 28.0008H311.67V43.5103H303.821V56.6172H311.67V99.8054H326.064V56.6172H333.953V43.5103H326.064V28.0008Z" fill="#46CB19"/>
<path d="M393 43.6221H403.266L405.687 49.7481C406.653 48.525 407.858 47.4179 409.188 46.4373C411.485 44.6027 414.747 43.6221 418.976 43.6221C420.306 43.6221 420.693 43.6221 421 43.6221V58.0777C420.158 57.9512 419.818 57.7087 418.374 57.7087C411.609 57.7087 406.903 62.6116 406.903 69.9712V100H393.01V43.6221H393Z" fill="#46CB19"/>
<path d="M426.022 43.6213H436.693L439.21 49.1358C440.344 48.0286 441.716 46.9321 443.099 46.0675C445.486 44.5914 448.877 42.9992 453.014 42.9992C458.912 42.9992 463.06 44.8339 465.695 46.679C467.208 47.7861 468.46 49.0092 469.335 50.3588C470.718 49.0092 472.219 47.7861 473.98 46.679C476.994 44.8444 481.26 42.9992 486.283 42.9992C498.845 42.9992 507 50.9704 507 66.2906V99.9992H492.558V67.5137C492.558 60.6496 488.162 56.4848 483.14 56.4848C478.117 56.4848 473.721 60.6496 473.721 67.5137V99.9992H459.279V67.5137C459.279 60.6496 454.883 56.4848 449.86 56.4848C444.838 56.4848 440.442 60.6496 440.442 67.5137V99.9992H426V43.6213H426.022Z" fill="#46CB19"/>
<path d="M558.604 50.7019L556.968 49.1196V49.2759C554.689 47.4202 552.215 45.9748 549.605 44.9395C546.353 43.6698 542.749 43.0252 538.912 43.0252C535.075 43.0252 531.725 43.748 528.336 45.1934C525.005 46.6194 521.966 48.6704 519.298 51.3074L519.22 51.3855C516.59 54.003 514.565 57.0502 513.182 60.4295C511.799 63.8087 511.098 67.4029 511.098 71.1533C511.098 74.9037 511.779 78.4392 513.104 81.7794C514.428 85.1196 516.415 88.2254 519.006 90.9992C521.733 93.8315 524.771 95.9997 528.082 97.4257C531.374 98.8516 535.094 99.5743 539.126 99.5743C543.158 99.5743 546.839 98.8516 550.229 97.4452C553.637 96.0388 556.715 93.9292 559.364 91.175C562.013 88.4794 564.038 85.3931 565.363 82.0138C566.687 78.6541 567.369 74.9037 567.369 70.8603C567.369 66.8169 566.59 63.5353 565.071 60.0193C563.551 56.5228 561.37 53.3975 558.585 50.7019H558.604ZM552.527 70.7822C552.527 75.2553 551.3 78.8494 548.904 81.4474C546.528 84.0062 543.275 85.315 539.224 85.315C535.172 85.315 531.822 84.0453 529.446 81.5255C527.05 78.9862 525.842 75.4702 525.842 71.0556C525.842 66.6411 527.089 63.5743 529.563 61.0155C532.017 58.4566 535.27 57.1674 539.185 57.1674C543.1 57.1674 546.158 58.4175 548.709 60.9764C551.222 63.5157 552.488 66.7973 552.488 70.7822H552.527Z" fill="#46CB19"/>
<path d="M613.595 47.592C611.822 46.4004 609.953 45.4628 608.024 44.8182H607.985C605.317 43.9197 602.239 43.4704 598.85 43.4704C595.461 43.4704 591.838 44.0955 588.741 45.287C585.586 46.4981 582.742 48.2756 580.327 50.5806C577.405 53.2566 575.107 56.4601 573.529 60.0738C571.932 63.707 571.114 67.5746 571.114 71.5203C571.114 75.4661 571.99 79.9002 573.724 83.7092C575.457 87.5182 577.97 90.8584 581.203 93.6517C583.56 95.7027 586.287 97.2849 589.287 98.3787H589.326C592.306 99.4531 595.5 100 598.85 100C602.2 100 605.025 99.5117 607.752 98.5545C609.758 97.8513 611.725 96.8551 613.614 95.605V99.8242H627.814V28H613.614V47.592H613.595ZM609.271 61.7146C611.706 64.2735 612.991 67.516 613.108 71.325V71.8719C613.108 75.72 611.842 79.0016 609.349 81.6777C606.875 84.3147 603.817 85.6625 600.253 85.6625C596.688 85.6625 592.715 84.3147 590.046 81.6777L589.968 81.5996C587.339 78.9821 586.014 75.6419 586.014 71.6961C586.014 67.7504 587.3 64.6446 590.046 61.8123C592.695 59.0776 595.948 57.6907 599.707 57.6907C603.466 57.6907 606.739 59.0385 609.271 61.7146Z" fill="#46CB19"/>
<path d="M199.487 50.5813C197.053 48.2764 194.209 46.4989 191.054 45.2878C187.957 44.0963 184.47 43.4712 180.945 43.4712C177.419 43.4712 174.478 43.9205 171.809 44.7995H171.77C169.842 45.4636 167.953 46.4012 166.2 47.5927V28.0008H152V99.8054H166.2V95.5862C168.07 96.8364 170.037 97.8326 172.063 98.5358C174.79 99.4929 177.789 99.9812 180.964 99.9812C184.139 99.9812 187.509 99.4343 190.489 98.3795H190.528C193.527 97.2856 196.254 95.6839 198.611 93.6329C201.844 90.8396 204.357 87.4799 206.09 83.6904C207.824 79.8814 208.7 75.7794 208.7 71.5016C208.7 67.2238 207.882 63.6882 206.285 60.055C204.688 56.4414 202.409 53.2379 199.487 50.5618V50.5813ZM170.465 81.698C167.972 79.0415 166.706 75.7403 166.706 71.8923V71.3453C166.823 67.5168 168.109 64.2938 170.543 61.7154C173.075 59.0393 176.289 57.6915 180.107 57.6915C183.925 57.6915 187.119 59.0784 189.768 61.813C192.514 64.6454 193.8 67.7707 193.8 71.6969C193.8 75.6231 192.475 78.9633 189.865 81.5808L189.768 81.6589C187.1 84.2959 183.652 85.6437 179.562 85.6437C175.471 85.6437 172.959 84.3155 170.465 81.6589V81.698Z" fill="#46CB19"/>
</svg>
