<svg width="689" height="128" viewBox="0 0 689 128" fill="none" xmlns="http://www.w3.org/2000/svg">
<g clip-path="url(#clip0_2_4155)">
<path d="M61.9966 63.8183C62.0245 55.5474 68.7513 48.8974 77.0653 48.9172C85.2401 48.9411 92.0067 55.75 91.9669 63.9216C91.9271 72.2481 85.1923 78.8823 76.8107 78.8465C68.5961 78.8108 61.9728 72.0892 61.9966 63.8143V63.8183Z" fill="black"/>
<path fill-rule="evenodd" clip-rule="evenodd" d="M64 128.002C99.3462 128.002 128 99.3477 128 64.0015C128 28.6553 99.3462 0.00152588 64 0.00152588C28.6538 0.00152588 0 28.6553 0 64.0015C0 99.3477 28.6538 128.002 64 128.002ZM52 44.0015C40.9543 44.0015 32 52.9558 32 64.0015C32 75.0472 40.9543 84.0015 52 84.0015H76C87.0457 84.0015 96 75.0472 96 64.0015C96 52.9558 87.0457 44.0015 76 44.0015H52Z" fill="black"/>
</g>
<path d="M251.427 80.9808C250.376 82.3872 249.051 83.5201 247.454 84.3601C245.506 85.3758 243.266 85.9032 240.812 85.9032C237.111 85.9032 234.053 84.9265 231.755 82.9927C229.788 81.3324 228.521 79.1251 227.976 76.3905H268.626C268.626 76.3905 268.957 76.4491 268.957 73.9488C268.957 70.4328 268.607 65.7643 267.789 62.932V62.8538C267.01 60.2754 265.899 57.8924 264.419 55.7632L263.913 55.06C261.088 51.251 257.641 48.2819 253.648 46.1919C249.635 44.0823 245.233 43.0275 240.617 43.0275C236.001 43.0275 233.313 43.8088 229.885 45.3715C226.457 46.9146 223.34 49.1414 220.633 52.0128C218.159 54.6108 216.231 57.5994 214.945 60.9005L214.906 60.9786C213.66 64.2212 213.017 67.7372 213.017 71.429C213.017 75.1208 213.699 78.5782 215.121 82.0551C216.523 85.493 218.51 88.5597 221.022 91.1772C223.691 93.9314 226.749 96.041 230.08 97.4474C233.43 98.8538 237.15 99.5766 241.124 99.5766C247.045 99.5766 252.362 97.9358 256.881 94.7128C261.361 91.5093 264.789 86.9971 267.049 81.2738L267.165 80.9808H251.427ZM232.826 59.0839C235.124 57.3454 237.734 56.4469 240.637 56.4469C243.539 56.4469 246.85 57.2673 249.051 58.8886C250.862 60.2168 252.265 62.1116 253.219 64.5142H228.697C229.573 62.346 230.956 60.5294 232.826 59.0839Z" fill="black"/>
<path d="M372.46 80.9808C371.408 82.3872 370.084 83.5201 368.487 84.3601C366.539 85.3758 364.299 85.9032 361.845 85.9032C358.144 85.9032 355.086 84.9265 352.787 82.9927C350.82 81.3324 349.554 79.1251 349.009 76.3905H389.659C389.659 76.3905 389.99 76.4491 389.99 73.9488C389.99 70.4328 389.639 65.7643 388.821 62.932V62.8538C388.042 60.2754 386.932 57.8924 385.452 55.7632L384.945 55.06C382.121 51.251 378.673 48.2819 374.681 46.1919C370.668 44.0823 366.266 43.0275 361.65 43.0275C357.034 43.0275 354.346 43.8088 350.918 45.3715C347.489 46.9146 344.373 49.1414 341.666 52.0128C339.192 54.6108 337.264 57.5994 335.978 60.9005L335.939 60.9786C334.693 64.2212 334.05 67.7372 334.05 71.429C334.05 75.1208 334.732 78.5782 336.153 82.0551C337.556 85.493 339.543 88.5597 342.055 91.1772C344.724 93.9314 347.782 96.041 351.112 97.4474C354.463 98.8538 358.183 99.5766 362.156 99.5766C368.078 99.5766 373.395 97.9358 377.914 94.7128C382.394 91.5093 385.822 86.9971 388.081 81.2738L388.198 80.9808H372.46ZM353.839 59.0839C356.138 57.3454 358.748 56.4469 361.65 56.4469C364.552 56.4469 367.863 57.2673 370.064 58.8886C371.876 60.2168 373.278 62.1116 374.233 64.5142H349.71C350.586 62.346 351.969 60.5294 353.839 59.0839Z" fill="black"/>
<path d="M670.541 80.9801C669.489 82.3865 668.164 83.5194 666.567 84.3593C664.619 85.3751 662.379 85.9025 659.925 85.9025C656.224 85.9025 653.166 84.9258 650.868 82.992C648.901 81.3317 647.635 79.1244 647.089 76.3897H687.74C687.74 76.3897 688.071 76.4483 688.071 73.9481C688.071 70.432 687.72 65.7636 686.902 62.9312V62.8531C686.123 60.2747 685.013 57.8916 683.532 55.7625L683.026 55.0593C680.202 51.2503 676.754 48.2812 672.761 46.1911C668.749 44.0815 664.347 43.0267 659.73 43.0267C655.114 43.0267 652.426 43.8081 648.998 45.3707C645.57 46.9139 642.454 49.1407 639.746 52.0121C637.273 54.61 635.344 57.5986 634.059 60.8998L634.02 60.9779C632.773 64.2204 632.13 67.7364 632.13 71.4282C632.13 75.1201 632.812 78.5775 634.234 82.0544C635.636 85.4923 637.623 88.559 640.136 91.1765C642.804 93.9307 645.862 96.0403 649.193 97.4467C652.543 98.8531 656.263 99.5758 660.237 99.5758C666.158 99.5758 671.476 97.935 675.994 94.712C680.474 91.5086 683.902 86.9963 686.162 81.2731L686.279 80.9801H670.541ZM651.92 59.0832C654.218 57.3447 656.828 56.4462 659.73 56.4462C662.633 56.4462 665.944 57.2666 668.145 58.8878C669.956 60.2161 671.359 62.1108 672.313 64.5134H647.791C648.667 62.3452 650.05 60.5286 651.92 59.0832Z" fill="black"/>
<path d="M291.276 28.0022H276.882V43.5117H269.032V56.6186H276.882V99.8069H291.276V56.6186H299.164V43.5117H291.276V28.0022Z" fill="black"/>
<path d="M326.064 28.0022H311.67V43.5117H303.821V56.6186H311.67V99.8069H326.064V56.6186H333.953V43.5117H326.064V28.0022Z" fill="black"/>
<path d="M393 43.6235H403.266L405.687 49.7495C406.653 48.5264 407.858 47.4193 409.188 46.4387C411.485 44.6041 414.747 43.6235 418.976 43.6235C420.306 43.6235 420.693 43.6235 421 43.6235V58.0791C420.158 57.9526 419.818 57.7101 418.374 57.7101C411.609 57.7101 406.903 62.613 406.903 69.9726V100.001H393.01V43.6235H393Z" fill="black"/>
<path d="M426.022 43.6228H436.693L439.21 49.1372C440.344 48.0301 441.716 46.9336 443.099 46.069C445.486 44.5929 448.877 43.0007 453.014 43.0007C458.912 43.0007 463.06 44.8354 465.695 46.6805C467.208 47.7876 468.46 49.0107 469.335 50.3603C470.718 49.0107 472.219 47.7876 473.98 46.6805C476.994 44.8459 481.26 43.0007 486.283 43.0007C498.845 43.0007 507 50.9719 507 66.2921V100.001H492.558V67.5152C492.558 60.6511 488.162 56.4863 483.14 56.4863C478.117 56.4863 473.721 60.6511 473.721 67.5152V100.001H459.279V67.5152C459.279 60.6511 454.883 56.4863 449.86 56.4863C444.838 56.4863 440.442 60.6511 440.442 67.5152V100.001H426V43.6228H426.022Z" fill="black"/>
<path d="M558.604 50.7033L556.968 49.1211V49.2774C554.689 47.4217 552.215 45.9763 549.605 44.941C546.353 43.6713 542.749 43.0267 538.912 43.0267C535.075 43.0267 531.725 43.7495 528.336 45.1949C525.005 46.6209 521.966 48.6719 519.298 51.3089L519.22 51.387C516.59 54.0045 514.565 57.0517 513.182 60.431C511.799 63.8102 511.098 67.4044 511.098 71.1548C511.098 74.9052 511.779 78.4407 513.104 81.7809C514.428 85.1211 516.415 88.2269 519.006 91.0007C521.733 93.833 524.771 96.0012 528.082 97.4272C531.374 98.8531 535.094 99.5758 539.126 99.5758C543.158 99.5758 546.839 98.8531 550.229 97.4467C553.637 96.0403 556.715 93.9307 559.364 91.1765C562.013 88.4809 564.038 85.3946 565.363 82.0153C566.687 78.6556 567.369 74.9052 567.369 70.8618C567.369 66.8184 566.59 63.5368 565.071 60.0208C563.551 56.5243 561.37 53.399 558.585 50.7033H558.604ZM552.527 70.7836C552.527 75.2568 551.3 78.8509 548.904 81.4489C546.528 84.0077 543.275 85.3165 539.224 85.3165C535.172 85.3165 531.822 84.0468 529.446 81.527C527.05 78.9877 525.842 75.4717 525.842 71.0571C525.842 66.6426 527.089 63.5758 529.563 61.017C532.017 58.4581 535.27 57.1689 539.185 57.1689C543.1 57.1689 546.158 58.419 548.709 60.9779C551.222 63.5172 552.488 66.7988 552.488 70.7836H552.527Z" fill="black"/>
<path d="M613.595 47.5934C611.822 46.4019 609.953 45.4643 608.024 44.8197H607.985C605.317 43.9212 602.239 43.4719 598.85 43.4719C595.461 43.4719 591.838 44.097 588.741 45.2885C585.586 46.4996 582.742 48.2771 580.327 50.582C577.405 53.2581 575.107 56.4616 573.529 60.0753C571.932 63.7085 571.114 67.5761 571.114 71.5218C571.114 75.4675 571.99 79.9016 573.724 83.7106C575.457 87.5196 577.97 90.8598 581.203 93.6531C583.56 95.7041 586.287 97.2863 589.287 98.3802H589.326C592.306 99.4545 595.5 100.001 598.85 100.001C602.2 100.001 605.025 99.5131 607.752 98.556C609.758 97.8528 611.725 96.8566 613.614 95.6065V99.8257H627.814V28.0015H613.614V47.5934H613.595ZM609.271 61.7161C611.706 64.2749 612.991 67.5175 613.108 71.3265V71.8734C613.108 75.7215 611.842 79.0031 609.349 81.6792C606.875 84.3162 603.817 85.664 600.253 85.664C596.688 85.664 592.715 84.3162 590.046 81.6792L589.968 81.601C587.339 78.9836 586.014 75.6434 586.014 71.6976C586.014 67.7519 587.3 64.6461 590.046 61.8137C592.695 59.0791 595.948 57.6922 599.707 57.6922C603.466 57.6922 606.739 59.04 609.271 61.7161Z" fill="black"/>
<path d="M199.487 50.5828C197.053 48.2778 194.209 46.5003 191.054 45.2892C187.957 44.0977 184.47 43.4726 180.945 43.4726C177.419 43.4726 174.478 43.9219 171.809 44.8009H171.77C169.842 45.465 167.953 46.4026 166.2 47.5942V28.0022H152V99.8069H166.2V95.5877C168.07 96.8378 170.037 97.834 172.063 98.5372C174.79 99.4943 177.789 99.9827 180.964 99.9827C184.139 99.9827 187.509 99.4357 190.489 98.3809H190.528C193.527 97.2871 196.254 95.6853 198.611 93.6343C201.844 90.841 204.357 87.4813 206.09 83.6918C207.824 79.8828 208.7 75.7808 208.7 71.503C208.7 67.2252 207.882 63.6897 206.285 60.0565C204.688 56.4428 202.409 53.2393 199.487 50.5632V50.5828ZM170.465 81.6994C167.972 79.0429 166.706 75.7418 166.706 71.8937V71.3467C166.823 67.5182 168.109 64.2952 170.543 61.7168C173.075 59.0407 176.289 57.6929 180.107 57.6929C183.925 57.6929 187.119 59.0798 189.768 61.8145C192.514 64.6468 193.8 67.7721 193.8 71.6983C193.8 75.6246 192.475 78.9648 189.865 81.5822L189.768 81.6604C187.1 84.2974 183.652 85.6452 179.562 85.6452C175.471 85.6452 172.959 84.3169 170.465 81.6604V81.6994Z" fill="black"/>
<defs>
<clipPath id="clip0_2_4155">
<rect width="128" height="128.002" fill="white" transform="translate(0 0.00152588)"/>
</clipPath>
</defs>
</svg>
