<svg width="129" height="128" viewBox="0 0 129 128" fill="none" xmlns="http://www.w3.org/2000/svg">
<g clip-path="url(#clip0_2_4171)">
<path d="M62.5318 63.8229C62.5596 55.552 69.2864 48.9019 77.6004 48.9218C85.7752 48.9456 92.5418 55.7546 92.502 63.9262C92.4622 72.2527 85.7275 78.8869 77.3459 78.8511C69.1313 78.8153 62.5079 72.0938 62.5318 63.8189V63.8229Z" fill="black"/>
<path fill-rule="evenodd" clip-rule="evenodd" d="M64.5352 128.006C99.8814 128.006 128.535 99.3523 128.535 64.0061C128.535 28.6599 99.8814 0.00610352 64.5352 0.00610352C29.1889 0.00610352 0.535156 28.6599 0.535156 64.0061C0.535156 99.3523 29.1889 128.006 64.5352 128.006ZM52.5352 44.0061C41.4895 44.0061 32.5352 52.9604 32.5352 64.0061C32.5352 75.0518 41.4895 84.0061 52.5352 84.0061H76.5352C87.5808 84.0061 96.5352 75.0518 96.5352 64.0061C96.5352 52.9604 87.5808 44.0061 76.5352 44.0061H52.5352Z" fill="black"/>
</g>
<defs>
<clipPath id="clip0_2_4171">
<rect width="128" height="128.002" fill="white" transform="translate(0.535156 0.00610352)"/>
</clipPath>
</defs>
</svg>
