<svg width="537" height="72" viewBox="0 0 537 72" fill="none" xmlns="http://www.w3.org/2000/svg">
<path d="M99.4269 52.9821C98.3751 54.3885 97.0506 55.5215 95.4534 56.3614C93.5056 57.3772 91.2657 57.9045 88.8115 57.9045C85.1107 57.9045 82.0527 56.9279 79.7543 54.9941C77.787 53.3337 76.521 51.1265 75.9756 48.3918H116.626C116.626 48.3918 116.957 48.4504 116.957 45.9501C116.957 42.4341 116.606 37.7656 115.788 34.9333V34.8552C115.009 32.2768 113.899 29.8937 112.419 27.7646L111.912 27.0614C109.088 23.2524 105.64 20.2833 101.647 18.1932C97.6349 16.0836 93.2329 15.0288 88.6167 15.0288C84.0004 15.0288 81.3125 15.8101 77.8844 17.3728C74.4563 18.9159 71.3398 21.1428 68.6324 24.0142C66.1587 26.6121 64.2304 29.6007 62.9449 32.9018L62.906 32.98C61.6594 36.2225 61.0166 39.7385 61.0166 43.4303C61.0166 47.1221 61.6983 50.5795 63.1202 54.0565C64.5226 57.4943 66.5093 60.5611 69.022 63.1786C71.6904 65.9328 74.7485 68.0424 78.0792 69.4488C81.4294 70.8552 85.1496 71.5779 89.1231 71.5779C95.0444 71.5779 100.362 69.9371 104.881 66.7141C109.361 63.5106 112.789 58.9984 115.048 53.2751L115.165 52.9821H99.4269ZM80.8256 31.0852C83.1239 29.3468 85.734 28.4482 88.6362 28.4482C91.5384 28.4482 94.8496 29.2686 97.0506 30.8899C98.862 32.2182 100.264 34.1129 101.219 36.5155H76.6962C77.5727 34.3473 78.9557 32.5307 80.8256 31.0852Z" fill="black"/>
<path d="M220.46 52.9821C219.408 54.3885 218.083 55.5215 216.486 56.3614C214.538 57.3772 212.298 57.9045 209.844 57.9045C206.143 57.9045 203.085 56.9279 200.787 54.9941C198.82 53.3337 197.554 51.1265 197.008 48.3918H237.658C237.658 48.3918 237.99 48.4504 237.99 45.9501C237.99 42.4341 237.639 37.7656 236.821 34.9333V34.8552C236.042 32.2768 234.932 29.8937 233.451 27.7646L232.945 27.0614C230.121 23.2524 226.673 20.2833 222.68 18.1932C218.668 16.0836 214.266 15.0288 209.649 15.0288C205.033 15.0288 202.345 15.8101 198.917 17.3728C195.489 18.9159 192.373 21.1428 189.665 24.0142C187.191 26.6121 185.263 29.6007 183.978 32.9018L183.939 32.98C182.692 36.2225 182.049 39.7385 182.049 43.4303C182.049 47.1221 182.731 50.5795 184.153 54.0565C185.555 57.4943 187.542 60.5611 190.055 63.1786C192.723 65.9328 195.781 68.0424 199.112 69.4488C202.462 70.8552 206.182 71.5779 210.156 71.5779C216.077 71.5779 221.395 69.9371 225.913 66.7141C230.393 63.5106 233.821 58.9984 236.081 53.2751L236.198 52.9821H220.46ZM201.839 31.0852C204.137 29.3468 206.747 28.4482 209.649 28.4482C212.552 28.4482 215.863 29.2686 218.064 30.8899C219.875 32.2182 221.278 34.1129 222.232 36.5155H197.709C198.586 34.3473 199.969 32.5307 201.839 31.0852Z" fill="black"/>
<path d="M518.54 52.9814C517.488 54.3878 516.164 55.5207 514.567 56.3607C512.619 57.3764 510.379 57.9038 507.925 57.9038C504.224 57.9038 501.166 56.9272 498.868 54.9933C496.9 53.333 495.634 51.1257 495.089 48.3911H535.739C535.739 48.3911 536.07 48.4497 536.07 45.9494C536.07 42.4334 535.72 37.7649 534.902 34.9326V34.8544C534.122 32.276 533.012 29.893 531.532 27.7638L531.025 27.0606C528.201 23.2516 524.754 20.2826 520.761 18.1925C516.748 16.0829 512.346 15.0281 507.73 15.0281C503.114 15.0281 500.426 15.8094 496.998 17.3721C493.57 18.9152 490.453 21.142 487.746 24.0134C485.272 26.6114 483.344 29.6 482.058 32.9011L482.019 32.9792C480.773 36.2218 480.13 39.7378 480.13 43.4296C480.13 47.1214 480.812 50.5788 482.233 54.0557C483.636 57.4936 485.623 60.5604 488.135 63.1778C490.804 65.932 493.862 68.0416 497.192 69.448C500.543 70.8544 504.263 71.5772 508.236 71.5772C514.158 71.5772 519.475 69.9364 523.994 66.7134C528.474 63.5099 531.902 58.9977 534.161 53.2744L534.278 52.9814H518.54ZM499.919 31.0845C502.218 29.346 504.828 28.4475 507.73 28.4475C510.632 28.4475 513.943 29.2679 516.144 30.8892C517.956 32.2174 519.358 34.1122 520.313 36.5148H495.79C496.667 34.3466 498.049 32.53 499.919 31.0845Z" fill="black"/>
<path d="M139.275 0.00366211H124.881V15.5132H117.032V28.6201H124.881V71.8083H139.275V28.6201H147.164V15.5132H139.275V0.00366211Z" fill="black"/>
<path d="M174.064 0.00366211H159.67V15.5132H151.82V28.6201H159.67V71.8083H174.064V28.6201H181.953V15.5132H174.064V0.00366211Z" fill="black"/>
<path d="M241 15.625H251.265L253.686 21.751C254.653 20.5279 255.858 19.4208 257.188 18.4402C259.484 16.6056 262.747 15.625 266.976 15.625C268.306 15.625 268.693 15.625 269 15.625V30.0806C268.158 29.9541 267.818 29.7116 266.373 29.7116C259.609 29.7116 254.902 34.6145 254.902 41.9741V72.0029H241.01V15.625H241Z" fill="black"/>
<path d="M274.021 15.6243H284.693L287.21 21.1387C288.344 20.0316 289.716 18.935 291.098 18.0705C293.485 16.5943 296.877 15.0022 301.014 15.0022C306.912 15.0022 311.059 16.8368 313.695 18.682C315.207 19.7891 316.46 21.0122 317.335 22.3618C318.717 21.0122 320.219 19.7891 321.98 18.682C324.993 16.8474 329.26 15.0022 334.282 15.0022C346.844 15.0022 355 22.9733 355 38.2935V72.0022H340.558V39.5166C340.558 32.6526 336.162 28.4878 331.139 28.4878C326.116 28.4878 321.72 32.6526 321.72 39.5166V72.0022H307.279V39.5166C307.279 32.6526 302.883 28.4878 297.86 28.4878C292.837 28.4878 288.441 32.6526 288.441 39.5166V72.0022H274V15.6243H274.021Z" fill="black"/>
<path d="M406.604 22.7047L404.967 21.1225V21.2788C402.689 19.4231 400.215 17.9776 397.605 16.9423C394.352 15.6727 390.749 15.0281 386.912 15.0281C383.074 15.0281 379.724 15.7508 376.335 17.1963C373.004 18.6222 369.966 20.6732 367.297 23.3102L367.219 23.3884C364.59 26.0058 362.564 29.053 361.181 32.4323C359.798 35.8116 359.097 39.4057 359.097 43.1561C359.097 46.9065 359.779 50.4421 361.103 53.7823C362.428 57.1225 364.415 60.2283 367.005 63.002C369.732 65.8344 372.771 68.0026 376.082 69.4285C379.374 70.8544 383.094 71.5772 387.126 71.5772C391.158 71.5772 394.839 70.8544 398.228 69.448C401.637 68.0416 404.714 65.932 407.363 63.1778C410.012 60.4822 412.038 57.3959 413.362 54.0167C414.687 50.6569 415.369 46.9065 415.369 42.8631C415.369 38.8197 414.589 35.5381 413.07 32.0221C411.551 28.5256 409.369 25.4003 406.584 22.7047H406.604ZM400.526 42.785C400.526 47.2581 399.299 50.8523 396.904 53.4502C394.527 56.0091 391.275 57.3178 387.223 57.3178C383.172 57.3178 379.822 56.0481 377.445 53.5283C375.049 50.989 373.842 47.473 373.842 43.0585C373.842 38.6439 375.088 35.5772 377.562 33.0183C380.016 30.4594 383.269 29.1702 387.184 29.1702C391.099 29.1702 394.157 30.4204 396.709 32.9792C399.221 35.5186 400.488 38.8002 400.488 42.785H400.526Z" fill="black"/>
<path d="M461.594 19.5949C459.822 18.4034 457.952 17.4658 456.024 16.8212H455.985C453.316 15.9226 450.239 15.4734 446.85 15.4734C443.461 15.4734 439.838 16.0984 436.741 17.29C433.585 18.501 430.742 20.2786 428.326 22.5835C425.405 25.2596 423.106 28.4631 421.529 32.0767C419.931 35.7099 419.113 39.5775 419.113 43.5233C419.113 47.469 419.99 51.9031 421.723 55.7121C423.457 59.5211 425.969 62.8613 429.203 65.6546C431.56 67.7056 434.287 69.2878 437.286 70.3817H437.325C440.305 71.456 443.5 72.0029 446.85 72.0029C450.2 72.0029 453.024 71.5146 455.751 70.5575C457.757 69.8543 459.725 68.8581 461.614 67.6079V71.8271H475.813V0.00292969H461.614V19.5949H461.594ZM457.27 33.7175C459.705 36.2764 460.991 39.5189 461.107 43.3279V43.8749C461.107 47.7229 459.841 51.0046 457.348 53.6806C454.875 56.3176 451.817 57.6654 448.252 57.6654C444.688 57.6654 440.714 56.3176 438.046 53.6806L437.968 53.6025C435.338 50.985 434.014 47.6448 434.014 43.6991C434.014 39.7533 435.299 36.6475 438.046 33.8152C440.695 31.0805 443.948 29.6937 447.707 29.6937C451.466 29.6937 454.738 31.0415 457.27 33.7175Z" fill="black"/>
<path d="M47.4869 22.5842C45.0522 20.2793 42.2084 18.5018 39.053 17.2907C35.9561 16.0992 32.4695 15.4741 28.9441 15.4741C25.4186 15.4741 22.4774 15.9234 19.8089 16.8024H19.77C17.8417 17.4665 15.9523 18.4041 14.1993 19.5956V0.00366211H0V71.8083H14.1993V67.5891C16.0692 68.8393 18.0365 69.8355 20.0622 70.5387C22.7891 71.4958 25.7886 71.9841 28.9635 71.9841C32.1384 71.9841 35.5081 71.4372 38.4882 70.3824H38.5271C41.5267 69.2885 44.2536 67.6868 46.6104 65.6358C49.8438 62.8425 52.3564 59.4828 54.0899 55.6933C55.8235 51.8843 56.6999 47.7823 56.6999 43.5045C56.6999 39.2267 55.8819 35.6911 54.2847 32.0579C52.6875 28.4443 50.4086 25.2408 47.4869 22.5647V22.5842ZM18.465 53.7009C15.9718 51.0444 14.7058 47.7432 14.7058 43.8951V43.3482C14.8226 39.5197 16.1082 36.2967 18.5429 33.7183C21.075 31.0422 24.2889 29.6944 28.1065 29.6944C31.9242 29.6944 35.1185 31.0813 37.7675 33.8159C40.5139 36.6483 41.7994 39.7736 41.7994 43.6998C41.7994 47.626 40.4749 50.9662 37.8649 53.5837L37.7675 53.6618C35.099 56.2988 31.6515 57.6466 27.5611 57.6466C23.4708 57.6466 20.9581 56.3184 18.465 53.6618V53.7009Z" fill="black"/>
</svg>
