<svg width="537" height="72" viewBox="0 0 537 72" fill="none" xmlns="http://www.w3.org/2000/svg">
<path d="M99.4274 52.9821C98.3756 54.3885 97.0511 55.5215 95.4539 56.3614C93.5061 57.3772 91.2662 57.9045 88.812 57.9045C85.1112 57.9045 82.0532 56.9279 79.7548 54.9941C77.7875 53.3337 76.5214 51.1265 75.9761 48.3918H116.626C116.626 48.3918 116.957 48.4504 116.957 45.9501C116.957 42.4341 116.607 37.7656 115.789 34.9333V34.8552C115.01 32.2768 113.899 29.8937 112.419 27.7646L111.913 27.0614C109.088 23.2524 105.641 20.2833 101.648 18.1932C97.6354 16.0836 93.2334 15.0288 88.6172 15.0288C84.0009 15.0288 81.313 15.8101 77.8849 17.3728C74.4568 18.9159 71.3403 21.1428 68.6329 24.0142C66.1592 26.6121 64.2309 29.6007 62.9454 32.9018L62.9065 32.98C61.6599 36.2225 61.0171 39.7385 61.0171 43.4303C61.0171 47.1221 61.6988 50.5795 63.1207 54.0565C64.5231 57.4943 66.5098 60.5611 69.0225 63.1786C71.6909 65.9328 74.7489 68.0424 78.0797 69.4488C81.4298 70.8552 85.1501 71.5779 89.1236 71.5779C95.0449 71.5779 100.362 69.9371 104.881 66.7141C109.361 63.5106 112.789 58.9984 115.049 53.2751L115.165 52.9821H99.4274ZM80.826 31.0852C83.1244 29.3468 85.7345 28.4482 88.6366 28.4482C91.5388 28.4482 94.8501 29.2686 97.0511 30.8899C98.8625 32.2182 100.265 34.1129 101.219 36.5155H76.6967C77.5732 34.3473 78.9562 32.5307 80.826 31.0852Z" fill="#46CB19"/>
<path d="M220.46 52.9821C219.408 54.3885 218.084 55.5215 216.487 56.3614C214.539 57.3772 212.299 57.9045 209.845 57.9045C206.144 57.9045 203.086 56.9279 200.787 54.9941C198.82 53.3337 197.554 51.1265 197.009 48.3918H237.659C237.659 48.3918 237.99 48.4504 237.99 45.9501C237.99 42.4341 237.639 37.7656 236.821 34.9333V34.8552C236.042 32.2768 234.932 29.8937 233.452 27.7646L232.945 27.0614C230.121 23.2524 226.673 20.2833 222.681 18.1932C218.668 16.0836 214.266 15.0288 209.65 15.0288C205.034 15.0288 202.346 15.8101 198.918 17.3728C195.489 18.9159 192.373 21.1428 189.666 24.0142C187.192 26.6121 185.264 29.6007 183.978 32.9018L183.939 32.98C182.693 36.2225 182.05 39.7385 182.05 43.4303C182.05 47.1221 182.732 50.5795 184.153 54.0565C185.556 57.4943 187.543 60.5611 190.055 63.1786C192.724 65.9328 195.782 68.0424 199.112 69.4488C202.463 70.8552 206.183 71.5779 210.156 71.5779C216.078 71.5779 221.395 69.9371 225.914 66.7141C230.394 63.5106 233.822 58.9984 236.081 53.2751L236.198 52.9821H220.46ZM201.839 31.0852C204.138 29.3468 206.748 28.4482 209.65 28.4482C212.552 28.4482 215.863 29.2686 218.064 30.8899C219.876 32.2182 221.278 34.1129 222.233 36.5155H197.71C198.586 34.3473 199.969 32.5307 201.839 31.0852Z" fill="#46CB19"/>
<path d="M518.541 52.9814C517.489 54.3878 516.164 55.5207 514.567 56.3607C512.619 57.3764 510.379 57.9038 507.925 57.9038C504.224 57.9038 501.166 56.9272 498.868 54.9933C496.901 53.333 495.635 51.1257 495.089 48.3911H535.74C535.74 48.3911 536.071 48.4497 536.071 45.9494C536.071 42.4334 535.72 37.7649 534.902 34.9326V34.8544C534.123 32.276 533.013 29.893 531.532 27.7638L531.026 27.0606C528.202 23.2516 524.754 20.2826 520.761 18.1925C516.749 16.0829 512.347 15.0281 507.73 15.0281C503.114 15.0281 500.426 15.8094 496.998 17.3721C493.57 18.9152 490.454 21.142 487.746 24.0134C485.273 26.6114 483.344 29.6 482.059 32.9011L482.02 32.9792C480.773 36.2218 480.13 39.7378 480.13 43.4296C480.13 47.1214 480.812 50.5788 482.234 54.0557C483.636 57.4936 485.623 60.5604 488.136 63.1778C490.804 65.932 493.862 68.0416 497.193 69.448C500.543 70.8544 504.263 71.5772 508.237 71.5772C514.158 71.5772 519.476 69.9364 523.994 66.7134C528.474 63.5099 531.902 58.9977 534.162 53.2744L534.279 52.9814H518.541ZM499.92 31.0845C502.218 29.346 504.828 28.4475 507.73 28.4475C510.633 28.4475 513.944 29.2679 516.145 30.8892C517.956 32.2174 519.359 34.1122 520.313 36.5148H495.791C496.667 34.3466 498.05 32.53 499.92 31.0845Z" fill="#46CB19"/>
<path d="M139.276 0.00366211H124.882V15.5132H117.032V28.6201H124.882V71.8083H139.276V28.6201H147.164V15.5132H139.276V0.00366211Z" fill="#46CB19"/>
<path d="M174.064 0.00366211H159.67V15.5132H151.821V28.6201H159.67V71.8083H174.064V28.6201H181.953V15.5132H174.064V0.00366211Z" fill="#46CB19"/>
<path d="M241 15.625H251.266L253.687 21.751C254.653 20.5279 255.858 19.4208 257.188 18.4402C259.485 16.6056 262.747 15.625 266.976 15.625C268.306 15.625 268.693 15.625 269 15.625V30.0806C268.158 29.9541 267.818 29.7116 266.374 29.7116C259.609 29.7116 254.903 34.6145 254.903 41.9741V72.0029H241.01V15.625H241Z" fill="#46CB19"/>
<path d="M274.022 15.6243H284.693L287.21 21.1387C288.344 20.0316 289.716 18.935 291.099 18.0705C293.486 16.5943 296.877 15.0022 301.014 15.0022C306.912 15.0022 311.06 16.8368 313.695 18.682C315.208 19.7891 316.46 21.0122 317.335 22.3618C318.718 21.0122 320.219 19.7891 321.98 18.682C324.994 16.8474 329.26 15.0022 334.283 15.0022C346.845 15.0022 355 22.9733 355 38.2935V72.0022H340.558V39.5166C340.558 32.6526 336.162 28.4878 331.14 28.4878C326.117 28.4878 321.721 32.6526 321.721 39.5166V72.0022H307.279V39.5166C307.279 32.6526 302.883 28.4878 297.86 28.4878C292.838 28.4878 288.442 32.6526 288.442 39.5166V72.0022H274V15.6243H274.022Z" fill="#46CB19"/>
<path d="M406.604 22.7047L404.968 21.1225V21.2788C402.689 19.4231 400.215 17.9776 397.605 16.9423C394.353 15.6727 390.749 15.0281 386.912 15.0281C383.075 15.0281 379.725 15.7508 376.336 17.1963C373.005 18.6222 369.966 20.6732 367.298 23.3102L367.22 23.3884C364.59 26.0058 362.565 29.053 361.182 32.4323C359.799 35.8116 359.098 39.4057 359.098 43.1561C359.098 46.9065 359.779 50.4421 361.104 53.7823C362.428 57.1225 364.415 60.2283 367.006 63.002C369.733 65.8344 372.771 68.0026 376.082 69.4285C379.374 70.8544 383.094 71.5772 387.126 71.5772C391.158 71.5772 394.839 70.8544 398.229 69.448C401.637 68.0416 404.715 65.932 407.364 63.1778C410.013 60.4822 412.038 57.3959 413.363 54.0167C414.687 50.6569 415.369 46.9065 415.369 42.8631C415.369 38.8197 414.59 35.5381 413.071 32.0221C411.551 28.5256 409.37 25.4003 406.585 22.7047H406.604ZM400.527 42.785C400.527 47.2581 399.3 50.8523 396.904 53.4502C394.528 56.0091 391.275 57.3178 387.224 57.3178C383.172 57.3178 379.822 56.0481 377.446 53.5283C375.05 50.989 373.842 47.473 373.842 43.0585C373.842 38.6439 375.089 35.5772 377.563 33.0183C380.017 30.4594 383.27 29.1702 387.185 29.1702C391.1 29.1702 394.158 30.4204 396.709 32.9792C399.222 35.5186 400.488 38.8002 400.488 42.785H400.527Z" fill="#46CB19"/>
<path d="M461.595 19.5949C459.822 18.4034 457.953 17.4658 456.024 16.8212H455.985C453.317 15.9226 450.239 15.4734 446.85 15.4734C443.461 15.4734 439.838 16.0984 436.741 17.29C433.586 18.501 430.742 20.2786 428.327 22.5835C425.405 25.2596 423.107 28.4631 421.529 32.0767C419.932 35.7099 419.114 39.5775 419.114 43.5233C419.114 47.469 419.99 51.9031 421.724 55.7121C423.457 59.5211 425.97 62.8613 429.203 65.6546C431.56 67.7056 434.287 69.2878 437.287 70.3817H437.326C440.306 71.456 443.5 72.0029 446.85 72.0029C450.2 72.0029 453.025 71.5146 455.752 70.5575C457.758 69.8543 459.725 68.8581 461.614 67.6079V71.8271H475.814V0.00292969H461.614V19.5949H461.595ZM457.271 33.7175C459.706 36.2764 460.991 39.5189 461.108 43.3279V43.8749C461.108 47.7229 459.842 51.0046 457.349 53.6806C454.875 56.3176 451.817 57.6654 448.253 57.6654C444.688 57.6654 440.715 56.3176 438.046 53.6806L437.968 53.6025C435.339 50.985 434.014 47.6448 434.014 43.6991C434.014 39.7533 435.3 36.6475 438.046 33.8152C440.695 31.0805 443.948 29.6937 447.707 29.6937C451.466 29.6937 454.739 31.0415 457.271 33.7175Z" fill="#46CB19"/>
<path d="M47.4874 22.5842C45.0527 20.2793 42.2089 18.5018 39.0535 17.2907C35.9566 16.0992 32.47 15.4741 28.9445 15.4741C25.4191 15.4741 22.4779 15.9234 19.8094 16.8024H19.7705C17.8422 17.4665 15.9528 18.4041 14.1998 19.5956V0.00366211H0.000488281V71.8083H14.1998V67.5891C16.0697 68.8393 18.037 69.8355 20.0626 70.5387C22.7895 71.4958 25.7891 71.9841 28.964 71.9841C32.1389 71.9841 35.5086 71.4372 38.4887 70.3824H38.5276C41.5272 69.2885 44.2541 67.6868 46.6109 65.6358C49.8442 62.8425 52.3569 59.4828 54.0904 55.6933C55.8239 51.8843 56.7004 47.7823 56.7004 43.5045C56.7004 39.2267 55.8824 35.6911 54.2852 32.0579C52.688 28.4443 50.4091 25.2408 47.4874 22.5647V22.5842ZM18.4655 53.7009C15.9723 51.0444 14.7062 47.7432 14.7062 43.8951V43.3482C14.8231 39.5197 16.1087 36.2967 18.5434 33.7183C21.0755 31.0422 24.2893 29.6944 28.107 29.6944C31.9247 29.6944 35.119 31.0813 37.768 33.8159C40.5144 36.6483 41.7999 39.7736 41.7999 43.6998C41.7999 47.626 40.4754 50.9662 37.8654 53.5837L37.768 53.6618C35.0995 56.2988 31.652 57.6466 27.5616 57.6466C23.4713 57.6466 20.9586 56.3184 18.4655 53.6618V53.7009Z" fill="#46CB19"/>
</svg>
