<svg width="32" height="32" viewBox="0 0 32 32" fill="none" xmlns="http://www.w3.org/2000/svg">
<rect width="32" height="32" rx="16" fill="url(#paint0_linear_433_2185)"/>
<path fill-rule="evenodd" clip-rule="evenodd" d="M15.7619 6.90678C15.9199 6.88394 16.0805 6.88394 16.2386 6.90678C16.4208 6.93311 16.5903 6.99715 16.7249 7.04801L16.761 7.0616L21.338 8.77787C21.8528 8.97008 22.305 9.13888 22.6531 9.44573C22.9577 9.71416 23.1924 10.0527 23.3368 10.4322C23.5018 10.866 23.5011 11.3486 23.5003 11.8981L23.5002 15.9996C23.5002 18.3552 22.2191 20.319 20.8343 21.7617C19.4403 23.214 17.8452 24.2398 17.0018 24.7318L16.9677 24.7519C16.8137 24.8422 16.614 24.9595 16.3497 25.0162C16.1335 25.0626 15.867 25.0626 15.6508 25.0162C15.3865 24.9595 15.1867 24.8422 15.0328 24.7519L14.9986 24.7318C14.1552 24.2398 12.5602 23.214 11.1661 21.7617C9.7813 20.319 8.50022 18.3552 8.50022 15.9996L8.50011 11.8981C8.49931 11.3486 8.49861 10.866 8.66367 10.4322C8.80806 10.0527 9.0427 9.71416 9.34729 9.44573C9.69548 9.13888 10.1476 8.97008 10.6624 8.77787L15.2395 7.0616L15.2755 7.04801C15.4101 6.99715 15.5797 6.93311 15.7619 6.90678ZM19.5061 14.089C19.8316 13.7636 19.8316 13.2359 19.5061 12.9105C19.1807 12.5851 18.6531 12.5851 18.3276 12.9105L15.1669 16.0712L14.0895 14.9938C13.764 14.6684 13.2364 14.6684 12.9109 14.9938C12.5855 15.3193 12.5855 15.8469 12.9109 16.1723L14.5776 17.839C14.9031 18.1644 15.4307 18.1644 15.7561 17.839L19.5061 14.089Z" fill="url(#paint1_linear_433_2185)"/>
<defs>
<linearGradient id="paint0_linear_433_2185" x1="0.0430642" y1="-7.54839e-08" x2="31.961" y2="32.0487" gradientUnits="userSpaceOnUse">
<stop stop-color="#7EB5F9"/>
<stop offset="1" stop-color="#6475FF"/>
</linearGradient>
<linearGradient id="paint1_linear_433_2185" x1="16.0002" y1="6.88965" x2="16.0002" y2="25.051" gradientUnits="userSpaceOnUse">
<stop stop-color="white"/>
<stop offset="1" stop-color="white" stop-opacity="0.41"/>
</linearGradient>
</defs>
</svg>
