<svg width="32" height="32" viewBox="0 0 32 32" fill="none" xmlns="http://www.w3.org/2000/svg">
<rect width="32" height="32" rx="16" fill="url(#paint0_linear_433_2188)"/>
<path d="M16.571 6.80345C16.1952 6.71526 15.8041 6.71526 15.4284 6.80345C14.9992 6.9042 14.6176 7.15294 14.1836 7.43594C12.3042 8.65757 10.4198 9.87183 8.54324 11.0979C8.25954 11.2833 8.11769 11.3759 8.06829 11.4938C8.02517 11.5967 8.02515 11.7129 8.06824 11.8158C8.1176 11.9337 8.25961 12.0265 8.54364 12.2122L14.9964 16.4314C15.5781 16.8117 15.7002 16.8773 15.8084 16.9028C15.9342 16.9325 16.0652 16.9325 16.191 16.9028C16.2992 16.8773 16.4213 16.8117 17.003 16.4314L23.4557 12.2123C23.7398 12.0266 23.8818 11.9337 23.9311 11.8158C23.9742 11.7129 23.9742 11.5967 23.9311 11.4938C23.8817 11.376 23.7398 11.2833 23.4561 11.0979C21.5796 9.87185 19.6952 8.65758 17.8158 7.43595C17.3817 7.15294 17.0002 6.9042 16.571 6.80345Z" fill="url(#paint1_linear_433_2188)"/>
<path d="M25.1641 14.3176C25.1639 13.9176 25.1638 13.7176 25.0801 13.6064C25.0071 13.5095 24.8956 13.4492 24.7746 13.4412C24.6357 13.4321 24.468 13.5417 24.1327 13.761L17.8234 17.8864C17.3877 18.1721 17.0048 18.4232 16.5736 18.5249C16.1962 18.614 15.8032 18.614 15.4258 18.5249C14.9946 18.4232 14.6117 18.1721 14.1761 17.8864L7.86665 13.7609C7.53134 13.5417 7.36369 13.4321 7.2248 13.4412C7.10379 13.4492 6.99224 13.5094 6.9193 13.6063C6.83557 13.7175 6.83545 13.9175 6.8352 14.3176C6.83432 15.7551 6.83301 18.1167 6.83301 19.5339C6.833 20.2047 6.83299 20.7584 6.86984 21.2093C6.90811 21.6778 6.99024 22.1083 7.19632 22.5128C7.5159 23.14 8.02583 23.6499 8.65304 23.9695C9.05749 24.1756 9.48807 24.2577 9.95649 24.296C10.4075 24.3328 10.9611 24.3328 11.6319 24.3328H20.3674C21.0382 24.3328 21.5919 24.3328 22.0429 24.296C22.5113 24.2577 22.9419 24.1756 23.3463 23.9695C23.9735 23.6499 24.4835 23.14 24.803 22.5128C25.0091 22.1083 25.0912 21.6778 25.1295 21.2093C25.1664 20.7584 25.1664 20.2047 25.1663 19.5339C25.1663 18.1168 25.165 15.7552 25.1641 14.3176Z" fill="url(#paint2_linear_433_2188)"/>
<defs>
<linearGradient id="paint0_linear_433_2188" x1="4.20253" y1="4.27773" x2="27.9086" y2="29.5913" gradientUnits="userSpaceOnUse">
<stop stop-color="#69E2D8"/>
<stop offset="1" stop-color="#5EA6DA"/>
</linearGradient>
<linearGradient id="paint1_linear_433_2188" x1="15.9997" y1="6.7373" x2="15.9997" y2="24.3328" gradientUnits="userSpaceOnUse">
<stop stop-color="white"/>
<stop offset="1" stop-color="white" stop-opacity="0.41"/>
</linearGradient>
<linearGradient id="paint2_linear_433_2188" x1="15.9997" y1="6.7373" x2="15.9997" y2="24.3328" gradientUnits="userSpaceOnUse">
<stop stop-color="white"/>
<stop offset="1" stop-color="white" stop-opacity="0.41"/>
</linearGradient>
</defs>
</svg>
