<svg width="129" height="128" viewBox="0 0 129 128" fill="none" xmlns="http://www.w3.org/2000/svg">
<g clip-path="url(#clip0_2_4205)">
<path d="M62.5318 63.8244C62.5596 55.5535 69.2864 48.9034 77.6004 48.9233C85.7752 48.9471 92.5418 55.7561 92.502 63.9276C92.4622 72.2541 85.7275 78.8883 77.3459 78.8526C69.1313 78.8168 62.5079 72.0952 62.5318 63.8204V63.8244Z" fill="white"/>
<path fill-rule="evenodd" clip-rule="evenodd" d="M64.5352 128.008C99.8814 128.008 128.535 99.3538 128.535 64.0076C128.535 28.6613 99.8814 0.00756836 64.5352 0.00756836C29.1889 0.00756836 0.535156 28.6613 0.535156 64.0076C0.535156 99.3538 29.1889 128.008 64.5352 128.008ZM52.5352 44.0076C41.4895 44.0076 32.5352 52.9619 32.5352 64.0076C32.5352 75.0533 41.4895 84.0076 52.5352 84.0076H76.5352C87.5808 84.0076 96.5352 75.0533 96.5352 64.0076C96.5352 52.9619 87.5808 44.0076 76.5352 44.0076H52.5352Z" fill="white"/>
</g>
<defs>
<clipPath id="clip0_2_4205">
<rect width="128" height="128.002" fill="white" transform="translate(0.535156 0.00756836)"/>
</clipPath>
</defs>
</svg>
